<svg id="svg" version="1.1" xmlns="http://www.w3.org/2000/svg" xmlns:xlink="http://www.w3.org/1999/xlink" width="400" height="715.3333333333334" viewBox="0, 0, 400,715.3333333333334"><g id="svgg"><path id="path0" d="M157.800 40.835 C 153.359 41.131,151.541 41.368,145.600 42.421 C 144.390 42.636,142.410 42.980,141.200 43.185 C 139.990 43.391,138.280 43.739,137.400 43.958 C 136.520 44.178,134.630 44.617,133.200 44.934 C 92.596 53.938,53.609 85.114,42.331 117.600 C 37.433 131.709,35.879 141.019,35.887 156.200 C 35.896 172.061,37.755 184.895,43.013 205.400 C 45.489 215.055,45.964 216.731,51.059 233.800 C 51.387 234.900,51.811 236.340,52.000 237.000 C 52.189 237.660,52.614 239.100,52.944 240.200 C 68.776 292.977,71.251 318.053,63.327 345.400 C 59.456 358.763,56.367 364.754,42.603 385.600 C 33.570 399.280,25.200 413.621,25.200 415.417 C 25.200 415.561,24.947 416.246,24.639 416.940 C 24.053 418.256,22.432 422.792,21.688 425.200 C 21.296 426.468,20.575 429.447,19.608 433.800 C 18.364 439.400,18.112 455.977,19.177 462.200 C 19.727 465.411,21.340 473.314,21.953 475.800 C 22.170 476.680,22.546 478.210,22.790 479.200 C 27.871 499.871,44.917 531.671,75.965 578.400 C 100.040 614.632,120.979 637.170,146.000 653.781 C 163.005 665.070,184.319 673.630,203.200 676.752 C 204.630 676.988,206.880 677.358,208.200 677.573 C 227.875 680.777,251.500 678.314,269.400 671.192 C 288.968 663.407,307.235 648.119,322.194 627.009 C 325.622 622.171,332.000 612.276,332.000 611.795 C 332.000 611.679,332.419 610.913,332.931 610.092 C 336.811 603.875,342.958 591.231,350.574 573.800 C 354.460 564.908,361.748 544.496,364.000 536.200 C 364.179 535.540,364.865 533.110,365.525 530.800 C 368.024 522.046,371.979 505.089,373.197 497.905 C 373.394 496.747,373.819 494.270,374.141 492.400 C 374.722 489.038,375.663 482.827,376.414 477.400 C 376.790 474.680,377.415 468.696,378.481 457.600 C 379.199 450.130,379.195 411.883,378.476 404.200 C 377.580 394.630,376.796 387.109,376.414 384.400 C 374.662 372.004,373.173 363.429,371.378 355.400 C 370.788 352.760,370.165 349.970,369.995 349.200 C 369.249 345.833,367.201 335.575,366.800 333.200 C 365.635 326.295,364.696 320.445,364.009 315.800 C 362.986 308.879,361.114 294.981,359.996 286.000 C 359.790 284.350,359.342 280.750,359.000 278.000 C 358.658 275.250,358.210 271.650,358.004 270.000 C 356.316 256.440,355.150 248.138,353.035 234.600 C 352.194 229.215,350.740 220.963,350.006 217.400 C 349.824 216.520,349.380 214.360,349.018 212.600 C 348.657 210.840,348.202 208.680,348.007 207.800 C 347.811 206.920,347.381 204.940,347.050 203.400 C 346.295 199.885,342.913 186.541,342.437 185.200 C 342.243 184.650,341.682 182.850,341.191 181.200 C 338.565 172.371,333.878 159.713,330.671 152.790 C 325.170 140.912,323.443 137.642,317.893 128.600 C 307.876 112.282,291.677 93.575,276.974 81.348 C 259.843 67.101,238.987 55.348,219.200 48.787 C 198.457 41.909,179.172 39.412,157.800 40.835 " stroke="none" fill="#0c0c0c" fill-rule="evenodd"></path></g></svg>