<svg height="2322" width="1923" xmlns="http://www.w3.org/2000/svg" xmlns:xlink="http://www.w3.org/1999/xlink"><path d=" M 972 46.74977067319906 C 951.375,45.807154367549366 933.1500000000001,45.66141217257379 931.5,46.4258991288089 C 929.8499999999999,47.190386085044004 897.4499999999999,49.290728393767026 859.5,51.09332648152672 C 821.5500000000001,52.895924569286414 777,55.49869906657882 760.5,56.87726980884316 C 744,58.25584055110751 720.378613891071,60.91489483338359 708.0080308690468,62.786279325012224 C 695.6374478470226,64.65766381664085 672.0124478470226,68.85453499603291 655.5080308690468,72.11265972366122 C 639.003613891071,75.37078445128955 619.425,79.50736983381023 612,81.30507168481832 C 604.575,83.10277353582639 595.125,85.63798808311749 591,86.93888178990964 C 586.875,88.23977549670178 577.425,90.99153233961968 570,93.05389699639385 C 562.575,95.11626165316801 548.4000000000001,99.41143421681355 538.5,102.59872491560618 C 528.5999999999999,105.78601561439882 517.8,109.52358435987543 514.5,110.90443323888755 C 511.20000000000005,112.28528211789964 500.40000000000003,116.51990499202084 490.5,120.3147062924902 C 480.59999999999997,124.10950759295956 458.32500000000005,134.5588462800117 441,143.5354589303838 C 423.67499999999995,152.51207158075596 397.34999999999997,167.98755269535073 382.5,177.92541696281666 C 367.65,187.86328123028255 354.82500000000005,196.79073270280537 354,197.76419801286738 C 353.17499999999995,198.73766332292942 347.1,203.4828579035405 340.5,208.30907485866976 C 333.9,213.13529181379903 315.67499999999995,230.00261145224215 300,245.7920073885433 C 284.32500000000005,261.58140332484453 268.50879314446246,278.1695264526627 264.852873654361,282.6545032281393 C 261.19695416425964,287.13948000361586 251.48487278221194,300.0493717646412 243.270470583144,311.3431515859733 C 235.05606838407607,322.6369314073054 220.4972752396136,345.29240495464273 210.91759692878298,361.68864835783404 C 201.3379186179523,378.08489176102535 189.86361634259413,398.92499999999995 185.41914742798696,408 C 180.97467851337979,417.07500000000005 173.88717851337975,432.3025078305368 169.66914742798696,441.83890629008164 C 165.45111634259413,451.37530474962665 161.99999999999994,459.94628043420664 161.99999999999991,460.88551892248165 C 161.9999999999999,461.8247574107568 160.1023587579125,466.84724958021997 157.783019462028,472.04661263239996 C 155.4636801661435,477.24597568458 151.2708817518146,488.25 148.46568965240826,496.5 C 145.6604975530019,504.75 142.27081943547665,514.2 140.93307161346323,517.5 C 139.5953237914498,520.8 137.8039337669471,526.2 136.95220489234612,529.5 C 136.10047601774514,532.8 133.2234039537114,542.925 130.55871141671562,552 C 127.89401887971984,561.075 123.66814295398679,575.925 121.16787602619775,585 C 118.6676090984087,594.075 115.22084616476857,608.25 113.50840284033077,616.5 C 111.79595951589297,624.75 109.16180231608982,636.9000000000001 107.6547201741015,643.5 C 106.14763803211318,650.0999999999999 102.76115725002568,666.9749999999999 100.12920732501817,681 C 97.49725740001067,695.0250000000001 94.2667529531591,713.25 92.95030855423693,721.5 C 91.63386415531475,729.75 88.28898605709496,754.05 85.51724611374848,775.5 C 82.74550617040201,796.9499999999999 79.34208626207038,826.6500000000001 77.9540907619004,841.5 C 76.56609526173042,856.3499999999999 74.02491327579871,894.8249999999999 72.30701968205213,927 C 70.58912608830555,959.1750000000001 67.68773852011937,1024.1471527506558 65.8594917527495,1071.3825616681243 C 63.417954724688244,1134.4632146554254 63.42683807943972,1181.058645622521 65.89295058608417,1246.8825616681243 C 67.73959971178809,1296.1721527506559 70.56767830083237,1361.475 72.17756967284922,1392 C 73.78746104486606,1422.525 76.36719302932326,1460.3249999999998 77.91030741608742,1476 C 79.45342180285158,1491.6750000000002 82.83059400128633,1521.375 85.41513452372016,1542 C 87.99967504615398,1562.625 91.36745304244127,1586.9250000000002 92.89908562658078,1596 C 94.4307182107203,1605.0749999999998 97.10849478265752,1621.2749999999999 98.84970023088573,1632 C 100.59090567911394,1642.7250000000001 103.3028460416199,1656.8999999999999 104.87623436978785,1663.5 C 106.4496226979558,1670.1000000000001 109.85530567836304,1684.9499999999998 112.4444187706928,1696.5 C 115.03353186302257,1708.0500000000002 118.64539846744391,1723.5749999999998 120.47078900274022,1731 C 122.29617953803653,1738.4250000000002 125.81912440764847,1751.25 128.29955537965566,1759.5 C 130.77998635166284,1767.75 136.53164291331024,1785.9750000000001 141.08101440553878,1800 C 145.63038589776733,1814.0249999999999 153.61084505802629,1836.3000000000002 158.81536809500318,1849.5 C 164.01989113198007,1862.6999999999998 171.59055637118576,1880.6244028097958 175.6390686265714,1889.3320062439907 C 179.68758088195705,1898.0396096781853 182.99999999999986,1905.628503404655 182.9999999999999,1906.1962145250343 C 182.9999999999999,1906.7639256454136 189.96464508538799,1919.8895228356178 198.4769890786401,1935.3642082810438 C 206.9893330718922,1950.83889372647 221.77525293721112,1975.1654130916731 231.3345887793489,1989.423140203718 C 240.8939246214867,2003.6808673157632 255.35731709544277,2023.2558673157632 263.4754609436958,2032.923140203718 C 271.59360479194885,2042.5904130916733 286.8451849266298,2059.308592583319 297.36786124298703,2070.0746501851527 C 307.8905375593442,2080.840707786987 325.275,2096.810337850001 336,2105.5627169918507 C 346.725,2114.3150961337005 357.5554894240308,2123.117919807504 360.06775427562394,2125.124547378081 C 362.5800191272171,2127.131174948658 370.6800191272171,2132.930708361724 378.06775427562394,2138.0123994071173 C 385.4554894240308,2143.0940904525105 397.57500000000005,2150.7940426070745 405,2155.123404195038 C 412.42499999999995,2159.452765783001 435.375,2171.2889468745525 456,2181.4260288429305 C 476.625,2191.5631108113084 496.20000000000005,2200.925006500852 499.5,2202.2302414863616 C 502.79999999999995,2203.5354764718713 510.90000000000003,2206.318222717275 517.5,2208.4141220317033 C 524.0999999999999,2210.510021346132 530.7825000000348,2213.299257244901 532.3500000000774,2214.6124240289682 C 533.91750000012,2215.925590813036 537.648317940122,2217 540.6407065334151,2217 C 543.6330951267083,2216.9999999999995 548.4255951266734,2218.184279969757 551.2907065333377,2219.631733266128 C 554.155817940002,2221.0791865624983 561.3208472527065,2223.779186562498 567.2129938949031,2225.631733266128 C 573.1051405370999,2227.484279969758 580.7879675946938,2229.0000000000005 584.2859429117784,2229.0000000000005 C 587.783918228863,2229.0000000000005 591.3921092788551,2230.2073951573675 592.3041452450941,2231.6831003497045 C 593.2161812113329,2233.158805542042 599.0333541537392,2235.0964979462265 605.2311962282188,2235.9890834701146 C 611.4290383026985,2236.881668994002 623.25,2239.1042434833644 631.5,2240.928137890919 C 639.75,2242.7520322984733 653.25,2245.4855493017494 661.5,2247.002620120421 C 669.75,2248.519690939093 685.2750000000001,2251.2152116634047 696,2252.9926661744475 C 706.7249999999999,2254.770120685491 728.325,2257.5171909988867 744,2259.097266870883 C 759.675,2260.6773427428793 804.9000000000001,2263.9802263067454 844.5,2266.4370081239185 C 884.0999999999999,2268.8937899410917 935.1146773153785,2270.925510220235 957.8659495897298,2270.951942077571 C 980.6172218640813,2270.978373934907 1022.4672218640812,2269.674086571302 1050.8659495897298,2268.0535257140045 C 1079.2646773153783,2266.4329648567073 1119.375,2263.6881052823433 1140,2261.953837770973 C 1160.625,2260.219570259603 1187.625,2257.4358603484866 1200,2255.7678157462697 C 1212.375,2254.099771144053 1229.9250000000002,2251.379808483705 1239,2249.7234542788296 C 1248.0749999999998,2248.067100073955 1261.9125,2245.426723413769 1269.75,2243.8559505895287 C 1277.5875,2242.2851777652877 1291.0875,2239.4824807034906 1299.75,2237.627734896646 C 1308.4125,2235.7729890898013 1318.875,2233.2295568979293 1323,2231.975663359153 C 1327.125,2230.7217698203767 1336.5749999999998,2228.035412491402 1344,2226.005980405876 C 1351.4250000000002,2223.97654832035 1360.1999999999998,2221.273857137706 1363.5,2220 C 1366.8000000000002,2218.726142862294 1375.5749999999998,2215.9452810700664 1383,2213.8203071283824 C 1390.4250000000002,2211.6953331866985 1397.7825000000348,2208.841456561214 1399.3500000000774,2207.478359071751 C 1400.91750000012,2206.115261582288 1404.4010020580363,2205 1407.0911156843363,2205 C 1409.781229310636,2205.0000000000005 1432.7607771248258,2194.7084053810213 1458.1567774936466,2182.1297897356017 C 1483.5527778624678,2169.551174090183 1516.2993191929318,2151.2123172105557 1530.9268693391218,2141.376774447542 C 1545.5544194853123,2131.5412316845286 1560.32520088705,2121.2453263035077 1563.7508280096504,2118.49698471194 C 1567.1764551322508,2115.7486431203733 1581.5714117438704,2103.2489394481786 1595.7396204799163,2090.7198654403965 C 1609.9078292159622,2078.190791432615 1628.9250000000002,2059.470761145094 1638,2049.119798134794 C 1647.0749999999998,2038.7688351244951 1663.7062531999786,2017.3135346193699 1674.9583404443963,2001.4413525678483 C 1686.2104276888144,1985.5691705163272 1702.0983016381037,1960.7301072897317 1710.2647269983722,1946.2434342865251 C 1718.4311523586405,1931.7567612833182 1729.2554879764907,1910.8131223402656 1734.3188061491499,1899.7020144130745 C 1739.382124321809,1888.5909064858834 1745.2483954424029,1875.4499999999998 1747.354964194914,1870.5 C 1749.4615329474245,1865.5500000000002 1753.5550581679458,1855.4250000000002 1756.4516869071826,1848 C 1759.34831564642,1840.5749999999998 1762.846032981632,1831.8000000000002 1764.2243920965425,1828.5 C 1765.6027512114533,1825.1999999999998 1770.0019774546406,1812.375 1774.0004504147364,1800 C 1777.9989233748322,1787.625 1783.5036028095606,1769.3999999999999 1786.2330713807987,1759.5 C 1788.9625399520373,1749.6000000000001 1792.3671835375196,1737.4499999999998 1793.798946015204,1732.5 C 1795.2307084928882,1727.5500000000002 1798.6365798915776,1713.375 1801.3675491234023,1701 C 1804.0985183552275,1688.625 1807.539691232665,1673.1000000000001 1809.0145999621525,1666.5 C 1810.4895086916404,1659.8999999999999 1813.6690796342314,1643.0249999999999 1816.0803131679108,1629 C 1818.4915467015903,1614.9750000000001 1821.9212954467203,1594.0500000000002 1823.7019770459774,1582.5 C 1825.4826586452348,1570.9499999999998 1828.3253604063023,1552.0500000000002 1830.0190920705718,1540.5 C 1831.7128237348413,1528.9499999999998 1834.4141925618444,1505.3249999999998 1836.0221339083564,1488 C 1837.6300752548686,1470.6750000000002 1840.8800733777816,1420.725 1843.2443519592744,1377 C 1845.6086305407673,1333.275 1848.4633413872486,1261.0500000000002 1849.5881538403441,1216.5 C 1850.7952271461795,1168.69192708352 1850.2270731036588,1099.8494116510342 1848.201657740603,1048.5 C 1846.31427243265,1000.6500000000001 1843.5234864742795,939.9000000000001 1841.999911166447,913.5 C 1840.4763358586144,887.0999999999999 1837.88639551897,851.3249999999999 1836.244488189459,834 C 1834.602580859948,816.6750000000001 1831.7809911574745,791.0250000000001 1829.9742888506294,777 C 1828.1675865437842,762.9749999999999 1825.4606955025797,744.75 1823.9589754257304,736.5 C 1822.4572553488815,728.25 1819.126259172584,708.675 1816.5567617006252,693 C 1813.9872642286664,677.325 1810.5382262167745,658.425 1808.8922327853109,651 C 1807.2462393538467,643.575 1801.2865952181453,618.5999999999999 1795.6485791504188,595.5 C 1790.010563082692,572.4000000000001 1780.7238121526673,539.325 1775.0113548614745,522 C 1769.2988975702815,504.67499999999995 1761.7471959600653,483.07500000000005 1758.22979572766,474 C 1754.7123954952554,464.92499999999995 1750.6677169373525,454.79999999999995 1749.2416211545428,451.5 C 1747.8155253717327,448.20000000000005 1739.5651744358613,430.65000000000003 1730.9075079637169,412.5 C 1722.2498414915722,394.34999999999997 1706.352765223619,365.32500000000005 1695.5806718127099,348 C 1684.8085784018008,330.67499999999995 1669.2506291483505,307.725 1661.0074512494873,297 C 1652.7642733506239,286.275 1631.7278876790451,263.2712045936474 1614.2599275348678,245.8804546525498 C 1596.7919673906904,228.4897047114522 1573.7250000000001,207.82697005072748 1563,199.96326651760603 C 1552.2749999999999,192.09956298448463 1541.1220682304079,183.7158583908372 1538.2157071786846,181.33281186505627 C 1535.309346126961,178.9497653392753 1532.3139424855474,176.99999999999997 1531.5592546422097,176.99999999999994 C 1530.804566798872,176.99999999999994 1520.8987328920534,170.99138912035315 1509.546290404835,163.64753137856258 C 1498.1938479176167,156.30367363677203 1474.1892515590303,143.33910212731826 1456.20274294131,134.83737246866525 C 1438.2162343235896,126.33564281001227 1420.8000000000002,118.30549640157483 1417.5,116.9926026721376 C 1414.1999999999998,115.67970894270039 1406.775,112.98303774023847 1401,111 C 1395.225,109.01696225976154 1387.8000000000002,106.32777978627936 1384.5,105.02403894781733 C 1381.1999999999998,103.72029810935533 1371.0749999999998,100.35190327125393 1362,97.53871708536977 C 1352.9250000000002,94.72553089948562 1335.375,89.82488169673972 1323,86.64838552371222 C 1310.625,83.4718893506847 1283.625,77.40378338854329 1263,73.16370560784242 C 1242.375,68.92362782714154 1216.725,64.20228950589728 1206,62.67184267174409 C 1195.275,61.141395837590885 1170.975,58.51763685812516 1152,56.84126716182024 C 1133.025,55.16489746551532 1093.1999999999998,52.59413891394388 1063.5,51.128470380550354 C 1033.8000000000002,49.66280184715684 992.625,47.69238697884875 972,46.74977067319906" stroke="none" stroke-width="1" style="fill: rgb(28, 32, 38);" /></svg>