<svg id="svg" version="1.1" xmlns="http://www.w3.org/2000/svg" xmlns:xlink="http://www.w3.org/1999/xlink" width="400" height="471.3333333333333" viewBox="0, 0, 400,471.3333333333333"><g id="svgg"><path id="path0" d="M195.156 22.181 C 193.872 22.632,169.300 40.352,138.000 63.398 C 130.190 69.148,114.080 80.938,102.200 89.597 C 61.631 119.167,26.601 144.892,25.491 145.930 C 23.264 148.012,23.281 148.852,25.741 159.022 C 29.812 175.846,38.659 212.603,47.590 249.800 C 52.450 270.040,60.381 302.890,65.214 322.800 C 70.048 342.710,76.587 369.678,79.745 382.729 C 85.689 407.291,85.929 408.040,88.213 409.159 C 88.841 409.466,108.535 412.754,131.977 416.465 C 155.420 420.175,190.440 425.720,209.800 428.787 C 273.547 438.885,292.977 441.948,294.800 442.186 C 296.960 442.469,298.279 441.879,299.247 440.199 C 300.268 438.429,366.798 206.122,366.799 204.326 C 366.801 201.976,366.249 201.260,356.017 190.325 C 353.277 187.396,347.337 181.046,342.817 176.214 C 338.298 171.382,331.090 163.723,326.800 159.194 C 322.510 154.666,315.670 147.371,311.600 142.984 C 307.530 138.597,302.661 133.386,300.781 131.404 C 298.900 129.422,294.947 125.190,291.997 122.000 C 286.572 116.135,281.054 110.255,267.600 96.000 C 263.530 91.687,256.870 84.571,252.800 80.186 C 248.730 75.800,244.031 70.770,242.359 69.006 C 240.686 67.243,236.546 62.814,233.159 59.163 C 229.771 55.513,221.673 46.873,215.163 39.963 C 196.340 19.985,197.776 21.261,195.156 22.181 " stroke="none" fill="#040404" fill-rule="evenodd"></path></g></svg>